<mxfile host="65bd71144e">
    <diagram id="dp6gEWoUpmNHVIV1Lh_C" name="Page-1">
        <mxGraphModel dx="695" dy="440" grid="1" gridSize="10" guides="1" tooltips="1" connect="1" arrows="1" fold="1" page="1" pageScale="1" pageWidth="827" pageHeight="1169" math="0" shadow="0">
            <root>
                <mxCell id="0"/>
                <mxCell id="1" parent="0"/>
                <mxCell id="2" value="bootsect" style="rounded=0;whiteSpace=wrap;html=1;" vertex="1" parent="1">
                    <mxGeometry x="30" y="210" width="70" height="60" as="geometry"/>
                </mxCell>
                <mxCell id="3" value="setup" style="rounded=0;whiteSpace=wrap;html=1;" vertex="1" parent="1">
                    <mxGeometry x="100" y="210" width="70" height="60" as="geometry"/>
                </mxCell>
                <mxCell id="4" value="..." style="rounded=0;whiteSpace=wrap;html=1;" vertex="1" parent="1">
                    <mxGeometry x="170" y="210" width="70" height="60" as="geometry"/>
                </mxCell>
                <mxCell id="5" value="setup" style="rounded=0;whiteSpace=wrap;html=1;" vertex="1" parent="1">
                    <mxGeometry x="240" y="210" width="70" height="60" as="geometry"/>
                </mxCell>
                <mxCell id="8" value="sector 1" style="text;html=1;align=center;verticalAlign=middle;resizable=0;points=[];autosize=1;strokeColor=none;fillColor=none;" vertex="1" parent="1">
                    <mxGeometry x="30" y="180" width="70" height="30" as="geometry"/>
                </mxCell>
                <mxCell id="9" value="sector 2" style="text;html=1;align=center;verticalAlign=middle;resizable=0;points=[];autosize=1;strokeColor=none;fillColor=none;" vertex="1" parent="1">
                    <mxGeometry x="100" y="180" width="70" height="30" as="geometry"/>
                </mxCell>
                <mxCell id="10" value="sector 5" style="text;html=1;align=center;verticalAlign=middle;resizable=0;points=[];autosize=1;strokeColor=none;fillColor=none;" vertex="1" parent="1">
                    <mxGeometry x="240" y="180" width="70" height="30" as="geometry"/>
                </mxCell>
                <mxCell id="11" value="head 0" style="text;html=1;align=center;verticalAlign=middle;resizable=0;points=[];autosize=1;strokeColor=none;fillColor=none;" vertex="1" parent="1">
                    <mxGeometry x="35" y="150" width="60" height="30" as="geometry"/>
                </mxCell>
                <mxCell id="12" value="head + kernel" style="rounded=0;whiteSpace=wrap;html=1;" vertex="1" parent="1">
                    <mxGeometry x="310" y="210" width="200" height="60" as="geometry"/>
                </mxCell>
                <mxCell id="13" value="sector 6+" style="text;html=1;align=center;verticalAlign=middle;resizable=0;points=[];autosize=1;strokeColor=none;fillColor=none;" vertex="1" parent="1">
                    <mxGeometry x="379" y="180" width="70" height="30" as="geometry"/>
                </mxCell>
            </root>
        </mxGraphModel>
    </diagram>
</mxfile>